<?xml version="1.0" standalone="no"?>
<!DOCTYPE svg PUBLIC "-//W3C//DTD SVG 20010904//EN"
 "http://www.w3.org/TR/2001/REC-SVG-20010904/DTD/svg10.dtd">
<svg version="1.0" xmlns="http://www.w3.org/2000/svg"
 width="1080.000000pt" height="1080.000000pt" viewBox="0 0 1080.000000 1080.000000"
 preserveAspectRatio="xMidYMid meet">
<metadata>
Created by potrace 1.14, written by Peter Selinger 2001-2017
</metadata>
<g transform="translate(0.000000,1080.000000) scale(0.100000,-0.100000)"
fill="#000000" stroke="none">
<path d="M0 5400 l0 -5400 5400 0 5400 0 0 5400 0 5400 -5400 0 -5400 0 0
-5400z m5200 3352 l0 -498 -55 -23 c-117 -48 -199 -158 -230 -305 -26 -129
-39 -443 -26 -657 15 -239 30 -321 81 -425 79 -161 178 -228 435 -289 656
-158 732 -180 921 -269 266 -127 436 -286 558 -525 170 -333 232 -730 206
-1320 -17 -385 -35 -537 -90 -757 -110 -436 -331 -707 -699 -855 -164 -65
-389 -114 -618 -133 l-73 -6 0 499 0 499 31 11 c89 31 181 135 218 247 47 143
64 555 35 850 -22 229 -63 340 -162 447 -75 80 -144 105 -562 212 -436 111
-571 155 -731 234 -259 129 -415 278 -533 510 -87 171 -138 337 -171 551 -25
172 -38 575 -26 853 20 443 63 665 186 952 57 134 193 306 314 399 199 152
507 251 891 286 47 4 88 8 93 9 4 0 7 -223 7 -497z m625 472 c446 -58 772
-233 958 -517 134 -203 208 -433 259 -797 14 -103 18 -1060 5 -1112 l-7 -28
-570 0 -570 0 6 488 c7 581 1 694 -45 787 -38 77 -101 137 -187 177 l-64 30 0
498 0 498 48 -5 c26 -2 101 -11 167 -19z m-932 -4136 c-13 -134 -9 -921 4
-1015 29 -197 112 -318 256 -370 l47 -18 0 -498 0 -498 -67 6 c-558 50 -905
212 -1109 516 -137 206 -213 442 -266 829 -18 134 -18 853 1 1013 l13 117 564
0 564 0 -7 -82z m2207 -3423 l0 -105 -1700 0 -1700 0 0 105 0 105 1700 0 1700
0 0 -105z"/>
</g>
</svg>
